<svg width="17" height="16" viewBox="0 0 17 16" fill="none" xmlns="http://www.w3.org/2000/svg">
<path fill-rule="evenodd" clip-rule="evenodd" d="M9.06672 15.6364H1.75199C1.28632 15.6364 0.909058 15.2589 0.909058 14.7934V1.20658C0.909058 0.740965 1.28638 0.363647 1.75199 0.363647H15.3389C15.8044 0.363647 16.1818 0.740965 16.1818 1.20658V14.7934C16.1818 15.2589 15.8043 15.6364 15.3389 15.6364H11.447V9.72194H13.4322L13.7295 7.41697H11.447V5.9454C11.447 5.27806 11.6323 4.82329 12.5893 4.82329L13.8098 4.82275V2.76118C13.5988 2.73309 12.8742 2.67033 12.0313 2.67033C10.2715 2.67033 9.06672 3.7445 9.06672 5.71712V7.41697H7.07641V9.72194H9.06672V15.6364Z" fill="#1F7BE7"/>
</svg>
