<svg width="17" height="16" viewBox="0 0 17 16" fill="none" xmlns="http://www.w3.org/2000/svg">
<g clip-path="url(#clip0)">
<path d="M16.1625 4.86199C16.125 4.05246 15.9956 3.49746 15.8078 3.01341C15.6117 2.51267 15.353 2.08703 14.9315 1.66557C14.5101 1.24411 14.0844 0.98122 13.5837 0.789268C13.0996 0.601489 12.5446 0.472129 11.7351 0.434574C10.9214 0.397018 10.6627 0.388672 8.5971 0.388672C6.52736 0.388672 6.26864 0.397018 5.4591 0.434574C4.64956 0.472129 4.09457 0.601489 3.61052 0.789268C3.10977 0.985393 2.68414 1.24411 2.26268 1.66557C1.84122 2.08703 1.57833 2.51267 1.38637 3.01341C1.1986 3.49746 1.06924 4.05246 1.03168 4.86199C0.994125 5.67571 0.985779 5.93442 0.985779 8C0.985779 10.0697 0.994125 10.3285 1.03168 11.138C1.06924 11.9475 1.1986 12.5025 1.38637 12.9866C1.5825 13.4873 1.84122 13.913 2.26268 14.3344C2.68414 14.7559 3.10977 15.0188 3.61052 15.2107C4.09457 15.3985 4.64956 15.5279 5.4591 15.5654C6.27281 15.603 6.53153 15.6113 8.5971 15.6113C10.6669 15.6113 10.9256 15.603 11.7351 15.5654C12.5446 15.5279 13.0996 15.3985 13.5837 15.2107C14.0844 15.0146 14.5101 14.7559 14.9315 14.3344C15.353 13.913 15.6159 13.4873 15.8078 12.9866C15.9956 12.5025 16.125 11.9475 16.1625 11.138C16.2001 10.3243 16.2084 10.0656 16.2084 8C16.2084 5.93442 16.2001 5.67153 16.1625 4.86199ZM14.7938 11.0754C14.7604 11.8182 14.6353 12.2229 14.5309 12.49C14.3932 12.8447 14.2263 13.0993 13.9592 13.3663C13.6922 13.6334 13.4376 13.7961 13.0829 13.938C12.8159 14.0423 12.4111 14.1675 11.6683 14.2009C10.8671 14.2384 10.6251 14.2468 8.59293 14.2468C6.56074 14.2468 6.31871 14.2384 5.51752 14.2009C4.77475 14.1675 4.36998 14.0423 4.10292 13.938C3.74822 13.8003 3.49368 13.6334 3.22661 13.3663C2.95955 13.0993 2.79681 12.8447 2.65493 12.49C2.55061 12.2229 2.42542 11.8182 2.39204 11.0754C2.35448 10.2742 2.34614 10.0322 2.34614 8C2.34614 5.96781 2.35448 5.72578 2.39204 4.92459C2.42542 4.18182 2.55061 3.77705 2.65493 3.50998C2.79263 3.15529 2.95955 2.90074 3.22661 2.63368C3.49368 2.36661 3.74822 2.20387 4.10292 2.062C4.36998 1.95767 4.77475 1.83249 5.51752 1.7991C6.31871 1.76155 6.56074 1.7532 8.59293 1.7532C10.6251 1.7532 10.8671 1.76155 11.6683 1.7991C12.4111 1.83249 12.8159 1.95767 13.0829 2.062C13.4376 2.1997 13.6922 2.36661 13.9592 2.63368C14.2263 2.90074 14.3891 3.15529 14.5309 3.50998C14.6353 3.77705 14.7604 4.18182 14.7938 4.92459C14.8314 5.72578 14.8397 5.96781 14.8397 8C14.8397 10.0322 14.8272 10.2742 14.7938 11.0754Z" fill="url(#paint0_linear)"/>
<path d="M8.59089 4.08997C6.42934 4.08997 4.68091 5.84257 4.68091 7.99995C4.68091 10.1615 6.43352 11.9099 8.59089 11.9099C10.7483 11.9099 12.5009 10.1573 12.5009 7.99995C12.5009 5.8384 10.7524 4.08997 8.59089 4.08997ZM8.59089 10.5371C7.18881 10.5371 6.05378 9.40204 6.05378 7.99995C6.05378 6.59786 7.18881 5.46284 8.59089 5.46284C9.99298 5.46284 11.128 6.59786 11.128 7.99995C11.128 9.40204 9.99298 10.5371 8.59089 10.5371Z" fill="#1F7BE7"/>
<path d="M12.6553 4.84936C13.16 4.84936 13.5692 4.44023 13.5692 3.93555C13.5692 3.43086 13.16 3.02173 12.6553 3.02173C12.1506 3.02173 11.7415 3.43086 11.7415 3.93555C11.7415 4.44023 12.1506 4.84936 12.6553 4.84936Z" fill="#1F7BE7"/>
<path d="M0.974976 8C0.974976 10.0697 0.983321 10.3285 1.02088 11.138C1.05843 11.9475 1.18779 12.5025 1.37557 12.9866C1.5717 13.4873 1.83042 13.913 2.25188 14.3344C2.67334 14.7559 3.09897 15.0188 3.59972 15.2107C4.08377 15.3985 4.63876 15.5279 5.4483 15.5654C6.26201 15.603 6.52073 15.6113 8.5863 15.6113C10.656 15.6113 10.9148 15.603 11.7243 15.5654C12.5338 15.5279 13.0888 15.3985 13.5729 15.2107C14.0736 15.0146 14.4993 14.7559 14.9207 14.3344C15.3422 13.913 15.6051 13.4873 15.797 12.9866C15.9848 12.5025 16.1142 11.9475 16.1517 11.138C16.1893 10.3243 16.1976 10.0656 16.1976 8C16.1976 5.93025 16.1893 5.67153 16.1517 4.862C16.1142 4.05246 15.9848 3.49746 15.797 3.01341C15.6009 2.51267 15.3422 2.08703 14.9207 1.66557C14.4993 1.24411 14.0736 0.98122 13.5729 0.789268C13.0888 0.601489 12.5338 0.472129 11.7243 0.434574C10.9106 0.397018 10.6519 0.388672 8.5863 0.388672C6.51656 0.388672 6.25784 0.397018 5.4483 0.434574C4.63876 0.472129 4.08377 0.601489 3.59972 0.789268C3.09897 0.985393 2.67334 1.24411 2.25188 1.66557C1.83042 2.08703 1.56752 2.51267 1.37557 3.01341C1.18779 3.49746 1.05843 4.05246 1.02088 4.862C0.983321 5.67153 0.974976 5.93025 0.974976 8ZM2.34785 8C2.34785 5.96781 2.3562 5.72578 2.39375 4.92459C2.42714 4.18182 2.55232 3.77705 2.65664 3.50998C2.79435 3.15529 2.96126 2.90074 3.22833 2.63368C3.49539 2.36662 3.74994 2.20387 4.10463 2.062C4.3717 1.95767 4.77647 1.83249 5.51924 1.7991C6.32043 1.76155 6.56246 1.7532 8.59465 1.7532C10.6268 1.7532 10.8689 1.76155 11.6701 1.7991C12.4128 1.83249 12.8176 1.95767 13.0847 2.062C13.4394 2.1997 13.6939 2.36662 13.961 2.63368C14.228 2.90074 14.3908 3.15529 14.5327 3.50998C14.637 3.77705 14.7622 4.18182 14.7955 4.92459C14.8331 5.72578 14.8414 5.96781 14.8414 8C14.8414 10.0322 14.8331 10.2742 14.7955 11.0754C14.7622 11.8182 14.637 12.2229 14.5327 12.49C14.3949 12.8447 14.228 13.0993 13.961 13.3663C13.6939 13.6334 13.4394 13.7961 13.0847 13.938C12.8176 14.0423 12.4128 14.1675 11.6701 14.2009C10.8689 14.2384 10.6268 14.2468 8.59465 14.2468C6.56246 14.2468 6.32043 14.2384 5.51924 14.2009C4.77647 14.1675 4.3717 14.0423 4.10463 13.938C3.74994 13.8003 3.49539 13.6334 3.22833 13.3663C2.96126 13.0993 2.79852 12.8447 2.65664 12.49C2.55232 12.2229 2.42714 11.8182 2.39375 11.0754C2.3562 10.2742 2.34785 10.0322 2.34785 8Z" fill="#1F7BE7"/>
</g>
<defs>
<linearGradient id="paint0_linear" x1="5.95278" y1="-0.832337" x2="10.9408" y2="15.8543" gradientUnits="userSpaceOnUse">
<stop stop-color="#4367DC"/>
<stop offset="0.04289" stop-color="#4C62D6"/>
<stop offset="0.1142" stop-color="#6654C7"/>
<stop offset="0.2045" stop-color="#8F3DAE"/>
<stop offset="0.2341" stop-color="#9E35A5"/>
<stop offset="0.4512" stop-color="#D42F7F"/>
<stop offset="0.8242" stop-color="#D73578"/>
</linearGradient>
<clipPath id="clip0">
<rect width="15.2727" height="15.2727" fill="white" transform="translate(0.954529 0.363647)"/>
</clipPath>
</defs>
</svg>
