<svg width="16" height="13" viewBox="0 0 16 13" fill="none" xmlns="http://www.w3.org/2000/svg">
<path fill-rule="evenodd" clip-rule="evenodd" d="M15.4091 1.50668C14.848 1.76224 14.2438 1.93506 13.61 2.01228C14.2572 1.61516 14.7538 0.985458 14.9878 0.235335C14.3818 0.603042 13.7122 0.870546 12.9968 1.01395C12.4267 0.389769 11.6118 0 10.71 0C8.98074 0 7.5778 1.43865 7.5778 3.21284C7.5778 3.46472 7.60469 3.70925 7.65848 3.94458C5.05431 3.81037 2.74596 2.53258 1.1996 0.586492C0.929766 1.06267 0.775574 1.61516 0.775574 2.20349C0.775574 3.31764 1.32869 4.30126 2.16955 4.87764C1.65679 4.86201 1.1727 4.71585 0.74958 4.47684V4.51636C0.74958 6.0736 1.8298 7.37253 3.26411 7.6667C3.00145 7.74208 2.72445 7.77977 2.43848 7.77977C2.23678 7.77977 2.03956 7.76046 1.84862 7.72277C2.24754 8.99872 3.40395 9.9281 4.77551 9.95292C3.70336 10.8152 2.35153 11.3291 0.884046 11.3291C0.631248 11.3291 0.381143 11.3144 0.136414 11.2849C1.52321 12.195 3.17088 12.7273 4.93956 12.7273C10.7037 12.7273 13.8547 7.83217 13.8547 3.58607C13.8547 3.44634 13.852 3.30661 13.8466 3.16964C14.4589 2.71644 14.9905 2.15109 15.4091 1.50668Z" fill="#1F7BE7"/>
</svg>
