<svg width="16" height="14" viewBox="0 0 16 14" fill="none" xmlns="http://www.w3.org/2000/svg">
<path d="M17.1474 13.833L13.7924 10.7177C13.641 10.5771 13.4357 10.499 13.2204 10.499H12.6719C13.6006 9.39596 14.1525 8.00859 14.1525 6.49937C14.1525 2.90909 11.0196 0 7.15319 0C3.28674 0 0.15387 2.90909 0.15387 6.49937C0.15387 10.0896 3.28674 12.9987 7.15319 12.9987C8.77851 12.9987 10.2726 12.4863 11.4605 11.6239V12.1332C11.4605 12.3332 11.5446 12.5238 11.696 12.6644L15.051 15.7797C15.3673 16.0734 15.8788 16.0734 16.1917 15.7797L17.144 14.8954C17.4604 14.6017 17.4604 14.1267 17.1474 13.833ZM7.15319 10.499C4.77409 10.499 2.84591 8.71165 2.84591 6.49937C2.84591 4.29021 4.77073 2.49976 7.15319 2.49976C9.53228 2.49976 11.4605 4.28708 11.4605 6.49937C11.4605 8.70852 9.53565 10.499 7.15319 10.499Z" fill="#999898"/>
</svg>
