<svg width="46" height="47" viewBox="0 0 46 47" fill="none" xmlns="http://www.w3.org/2000/svg">
<rect y="0.5" width="46" height="46" rx="23" fill="white"/>
<path d="M19.208 27.8333H12.708V28.9166H19.208V27.8333Z" fill="#1F7BE6"/>
<path d="M19.208 30H12.708V31.0833H19.208V30Z" fill="#1F7BE6"/>
<path d="M17.0413 32.1667H12.708V33.2501H17.0413V32.1667Z" fill="#1F7BE6"/>
<path d="M16.5 18.0833C18.2929 18.0833 19.75 16.6262 19.75 14.8333V13.75C19.75 11.9571 18.2929 10.5 16.5 10.5C14.7071 10.5 13.25 11.9571 13.25 13.75V14.8333C13.25 16.6262 14.7071 18.0833 16.5 18.0833ZM14.3333 13.75C14.3333 12.5529 15.3029 11.5833 16.5 11.5833C17.6971 11.5833 18.6667 12.5529 18.6667 13.75V14.8333C18.6667 16.0304 17.6971 17 16.5 17C15.3029 17 14.3333 16.0304 14.3333 14.8333V13.75Z" fill="#1F7BE6"/>
<path d="M13.25 20.2501H19.75C20.9471 20.2501 21.9167 21.2197 21.9167 22.4167H23C23 20.6238 21.5429 19.1667 19.75 19.1667H13.25C11.4571 19.1667 10 20.6238 10 22.4167H11.0833C11.0833 21.2197 12.0529 20.2501 13.25 20.2501Z" fill="#1F7BE6"/>
<path d="M32.75 28.9166V27.8333C32.75 26.0403 31.2929 24.5833 29.5 24.5833C27.7071 24.5833 26.25 26.0403 26.25 27.8333V28.9166C26.25 30.7095 27.7071 32.1666 29.5 32.1666C31.2929 32.1666 32.75 30.7095 32.75 28.9166ZM27.3334 28.9166V27.8333C27.3334 26.6362 28.3029 25.6666 29.5 25.6666C30.6971 25.6666 31.6667 26.6362 31.6667 27.8333V28.9166C31.6667 30.1137 30.6971 31.0833 29.5 31.0833C28.3029 31.0833 27.3334 30.1137 27.3334 28.9166Z" fill="#1F7BE6"/>
<path d="M32.75 33.25H26.25C24.4571 33.25 23 34.7071 23 36.5H24.0833C24.0833 35.3029 25.0529 34.3333 26.25 34.3333H32.75C33.9471 34.3333 34.9167 35.3029 34.9167 36.5H36C36 34.7071 34.5429 33.25 32.75 33.25Z" fill="#1F7BE6"/>
<path d="M34.3752 10.5H25.7085C24.8147 10.5 24.0835 11.2312 24.0835 12.125V14.5246L20.7793 16.4529L24.0835 18.3975V20.7917C24.0835 21.6854 24.8147 22.4167 25.7085 22.4167H34.3752C35.2689 22.4167 36.0002 21.6854 36.0002 20.7917V12.125C36.0002 11.2312 35.2689 10.5 34.3752 10.5ZM34.9168 20.7917C34.9168 21.0896 34.6731 21.3334 34.3752 21.3334H25.7085C25.4105 21.3334 25.1668 21.0896 25.1668 20.7917V17.7746L22.9189 16.4529L25.1668 15.1421V12.125C25.1668 11.8271 25.4105 11.5833 25.7085 11.5833H34.3752C34.6731 11.5833 34.9168 11.8271 34.9168 12.125V20.7917Z" fill="#1F7BE6"/>
<path d="M21.9167 28.6078V26.2083C21.9167 25.3145 21.1854 24.5833 20.2917 24.5833H11.625C10.7312 24.5833 10 25.3145 10 26.2083V34.8749C10 35.7687 10.7312 36.4999 11.625 36.4999H20.2917C21.1854 36.4999 21.9167 35.7687 21.9167 34.8749V32.4754L25.2209 30.5308L21.9167 28.6078ZM20.8333 31.8578V34.8749C20.8333 35.1729 20.5896 35.4166 20.2917 35.4166H11.625C11.3271 35.4166 11.0833 35.1729 11.0833 34.8749V26.2083C11.0833 25.9103 11.3271 25.6666 11.625 25.6666H20.2917C20.5896 25.6666 20.8333 25.9103 20.8333 26.2083V29.2254L23.0812 30.5362L20.8333 31.8578Z" fill="#1F7BE6"/>
<path d="M30.5833 19.1667H29.5V20.2501H30.5833V19.1667Z" fill="#1F7BE6"/>
<path d="M30.5833 12.6667H29.5C28.6062 12.6667 27.875 13.398 27.875 14.2917V14.8334H28.9583V14.2917C28.9583 13.9938 29.2021 13.7501 29.5 13.7501H30.5833C30.8812 13.7501 31.125 13.9938 31.125 14.2917V15.3372C31.125 15.5159 31.0329 15.6892 30.8812 15.7867L30.2204 16.2255C29.7654 16.5288 29.4946 17.0326 29.4946 17.5797V18.0834H30.5779V17.5797C30.5779 17.4009 30.67 17.2276 30.8217 17.1301L31.4825 16.6913C31.9375 16.388 32.2083 15.8842 32.2083 15.3372V14.2917C32.2083 13.398 31.4771 12.6667 30.5833 12.6667Z" fill="#1F7BE6"/>
</svg>
