<svg width="44" height="45" viewBox="0 0 44 45" fill="none" xmlns="http://www.w3.org/2000/svg">
<rect x="0.25" y="0.75" width="43.5" height="43.5" rx="21.75" fill="#00CFE8" fill-opacity="0.12"/>
<path fill-rule="evenodd" clip-rule="evenodd" d="M18.475 26.4167C18.3614 26.4167 18.0403 26.0642 17.8276 25.8303C17.188 25.1281 16.2214 24.0667 14.5583 24.0667C12.9396 24.0667 12.6 24.4924 12.6 24.85C12.6 25.0662 12.7751 25.2417 12.9917 25.2417C13.1499 25.2417 13.2866 25.1477 13.3481 25.0125C13.4252 24.9699 13.7178 24.85 14.5583 24.85C15.8751 24.85 16.6369 25.6862 17.2483 26.3579C17.6768 26.8283 18.0152 27.2 18.475 27.2H23.5667C23.7833 27.2 23.9583 27.0245 23.9583 26.8083C23.9583 26.5921 23.7833 26.4167 23.5667 26.4167H18.475ZM22.3917 31.1167H18.475C18.0634 31.1167 17.5401 31.2788 16.9346 31.4668C16.2801 31.6697 15.5375 31.9 14.95 31.9H11.425C11.2088 31.9 11.0333 31.7241 11.0333 31.5083C11.0333 31.2925 11.2088 31.1167 11.425 31.1167C11.6416 31.1167 11.8167 30.9412 11.8167 30.725C11.8167 30.5088 11.6416 30.3333 11.425 30.3333C11.2088 30.3333 11.0333 30.1575 11.0333 29.9417C11.0333 29.7259 11.2088 29.55 11.425 29.55C11.6416 29.55 11.8167 29.3745 11.8167 29.1583C11.8167 28.9421 11.6416 28.7667 11.425 28.7667C11.2088 28.7667 11.0333 28.5908 11.0333 28.375C11.0333 28.1592 11.2088 27.9833 11.425 27.9833C11.6416 27.9833 11.8167 27.8079 11.8167 27.5917C11.8167 27.3755 11.6416 27.2 11.425 27.2C11.2088 27.2 11.0333 27.0241 11.0333 26.8083C11.0333 26.5925 11.2088 26.4167 11.425 26.4167H14.5583C14.7749 26.4167 14.95 26.2412 14.95 26.025C14.95 25.8088 14.7749 25.6333 14.5583 25.6333H11.425C10.7772 25.6333 10.25 26.1605 10.25 26.8083C10.25 27.1091 10.3636 27.3837 10.55 27.5917C10.3636 27.7996 10.25 28.0742 10.25 28.375C10.25 28.6758 10.3636 28.9504 10.55 29.1583C10.3636 29.3663 10.25 29.6409 10.25 29.9417C10.25 30.2425 10.3636 30.517 10.55 30.725C10.3636 30.933 10.25 31.2075 10.25 31.5083C10.25 32.1562 10.7772 32.6833 11.425 32.6833H12.6V33.8583C12.6 34.0745 12.7751 34.25 12.9917 34.25C13.2083 34.25 13.3833 34.0745 13.3833 33.8583V32.6833H14.95C15.6562 32.6833 16.4587 32.4346 17.1664 32.2149C17.2119 32.2008 17.2554 32.1879 17.3 32.1742V33.8583C17.3 34.0745 17.4751 34.25 17.6917 34.25C17.9083 34.25 18.0833 34.0745 18.0833 33.8583V31.9572C18.2326 31.9243 18.3696 31.9 18.475 31.9H22.3917C22.6083 31.9 22.7833 31.7245 22.7833 31.5083C22.7833 31.2921 22.6083 31.1167 22.3917 31.1167ZM33.75 26.8083C33.75 26.5921 33.5749 26.4167 33.3583 26.4167H31.4572C31.4247 26.2678 31.4 26.1304 31.4 26.025V22.1083C31.4 21.8921 31.2249 21.7167 31.0083 21.7167C30.7917 21.7167 30.6167 21.8921 30.6167 22.1083V26.025C30.6167 26.4363 30.7788 26.9595 30.9668 27.5654C31.1697 28.2203 31.4 28.9625 31.4 29.55V33.075C31.4 33.2908 31.2245 33.4667 31.0083 33.4667C30.7921 33.4667 30.6167 33.2908 30.6167 33.075C30.6167 32.8588 30.4416 32.6833 30.225 32.6833C30.0084 32.6833 29.8333 32.8588 29.8333 33.075C29.8333 33.2908 29.6579 33.4667 29.4417 33.4667C29.2255 33.4667 29.05 33.2908 29.05 33.075C29.05 32.8588 28.8749 32.6833 28.6583 32.6833C28.4417 32.6833 28.2667 32.8588 28.2667 33.075C28.2667 33.2908 28.0912 33.4667 27.875 33.4667C27.6588 33.4667 27.4833 33.2908 27.4833 33.075C27.4833 32.8588 27.3083 32.6833 27.0917 32.6833C26.8751 32.6833 26.7 32.8588 26.7 33.075C26.7 33.2908 26.5245 33.4667 26.3083 33.4667C26.0921 33.4667 25.9167 33.2908 25.9167 33.075V29.9417C25.9167 29.7255 25.7416 29.55 25.525 29.55C25.3084 29.55 25.1333 29.7255 25.1333 29.9417V33.075C25.1333 33.7228 25.6605 34.25 26.3083 34.25C26.6091 34.25 26.8837 34.1364 27.0917 33.95C27.2996 34.1364 27.5742 34.25 27.875 34.25C28.1758 34.25 28.4504 34.1364 28.6583 33.95C28.8663 34.1364 29.1409 34.25 29.4417 34.25C29.7425 34.25 30.017 34.1364 30.225 33.95C30.433 34.1364 30.7075 34.25 31.0083 34.25C31.6562 34.25 32.1833 33.7228 32.1833 33.075V31.9H33.3583C33.5749 31.9 33.75 31.7245 33.75 31.5083C33.75 31.2921 33.5749 31.1167 33.3583 31.1167H32.1833V29.55C32.1833 28.8438 31.9342 28.0413 31.7149 27.3332C31.7008 27.2881 31.6875 27.2446 31.6738 27.2H33.3583C33.5749 27.2 33.75 27.0245 33.75 26.8083ZM24.5122 31.1519C24.4699 31.0744 24.35 30.7822 24.35 29.9417C24.35 28.6249 25.1862 27.8635 25.8583 27.2517C26.3287 26.8232 26.7 26.4848 26.7 26.025V20.9333C26.7 20.7171 26.5249 20.5417 26.3083 20.5417C26.0917 20.5417 25.9167 20.7171 25.9167 20.9333V26.025C25.9167 26.1386 25.5642 26.4598 25.3307 26.6724C24.6281 27.312 23.5667 28.2787 23.5667 29.9417C23.5667 31.56 23.9928 31.9 24.35 31.9C24.5666 31.9 24.7417 31.7245 24.7417 31.5083C24.7417 31.3501 24.6477 31.2134 24.5122 31.1519ZM26.1724 19.1697C26.812 19.8719 27.7787 20.9333 29.4417 20.9333C31.0604 20.9333 31.4 20.5076 31.4 20.15C31.4 19.9338 31.2249 19.7583 31.0083 19.7583C30.8501 19.7583 30.7134 19.8523 30.6519 19.9875C30.5748 20.0302 30.2822 20.15 29.4417 20.15C28.1249 20.15 27.3631 19.3138 26.7517 18.6421C26.3232 18.1717 25.9848 17.8 25.525 17.8H20.4333C20.2167 17.8 20.0417 17.9755 20.0417 18.1917C20.0417 18.4079 20.2167 18.5833 20.4333 18.5833H25.525C25.6386 18.5833 25.9598 18.9358 26.1724 19.1697ZM33.45 14.275C33.6364 14.067 33.75 13.7925 33.75 13.4917C33.75 12.8439 33.2228 12.3167 32.575 12.3167H31.4V11.1417C31.4 10.9255 31.2249 10.75 31.0083 10.75C30.7917 10.75 30.6167 10.9255 30.6167 11.1417V12.3167H29.05C28.3438 12.3167 27.5413 12.5654 26.8336 12.7851C26.7881 12.7992 26.7446 12.8121 26.7 12.8258V11.1417C26.7 10.9255 26.5249 10.75 26.3083 10.75C26.0917 10.75 25.9167 10.9255 25.9167 11.1417V13.0428C25.7674 13.0757 25.6304 13.1 25.525 13.1H21.6083C21.3917 13.1 21.2167 13.2755 21.2167 13.4917C21.2167 13.7079 21.3917 13.8833 21.6083 13.8833H25.525C25.9366 13.8833 26.4599 13.7212 27.0654 13.5332C27.7199 13.3303 28.4625 13.1 29.05 13.1H32.575C32.7912 13.1 32.9667 13.2759 32.9667 13.4917C32.9667 13.7075 32.7912 13.8833 32.575 13.8833C32.3584 13.8833 32.1833 14.0588 32.1833 14.275C32.1833 14.4912 32.3584 14.6667 32.575 14.6667C32.7912 14.6667 32.9667 14.8425 32.9667 15.0583C32.9667 15.2741 32.7912 15.45 32.575 15.45C32.3584 15.45 32.1833 15.6255 32.1833 15.8417C32.1833 16.0579 32.3584 16.2333 32.575 16.2333C32.7912 16.2333 32.9667 16.4092 32.9667 16.625C32.9667 16.8408 32.7912 17.0167 32.575 17.0167C32.3584 17.0167 32.1833 17.1921 32.1833 17.4083C32.1833 17.6245 32.3584 17.8 32.575 17.8C32.7912 17.8 32.9667 17.9759 32.9667 18.1917C32.9667 18.4075 32.7912 18.5833 32.575 18.5833H29.4417C29.2251 18.5833 29.05 18.7588 29.05 18.975C29.05 19.1912 29.2251 19.3667 29.4417 19.3667H32.575C33.2228 19.3667 33.75 18.8395 33.75 18.1917C33.75 17.8909 33.6364 17.6163 33.45 17.4083C33.6364 17.2004 33.75 16.9258 33.75 16.625C33.75 16.3242 33.6364 16.0496 33.45 15.8417C33.6364 15.6337 33.75 15.3591 33.75 15.0583C33.75 14.7575 33.6364 14.483 33.45 14.275ZM10.25 18.1917C10.25 18.4079 10.4251 18.5833 10.6417 18.5833H12.5428C12.5753 18.7322 12.6 18.8696 12.6 18.975V22.8917C12.6 23.1079 12.7751 23.2833 12.9917 23.2833C13.2083 23.2833 13.3833 23.1079 13.3833 22.8917V18.975C13.3833 18.5638 13.2212 18.0405 13.0332 17.4346C12.8303 16.7797 12.6 16.0375 12.6 15.45V11.925C12.6 11.7092 12.7755 11.5333 12.9917 11.5333C13.2079 11.5333 13.3833 11.7092 13.3833 11.925C13.3833 12.1412 13.5584 12.3167 13.775 12.3167C13.9916 12.3167 14.1667 12.1412 14.1667 11.925C14.1667 11.7092 14.3421 11.5333 14.5583 11.5333C14.7745 11.5333 14.95 11.7092 14.95 11.925C14.95 12.1412 15.1251 12.3167 15.3417 12.3167C15.5583 12.3167 15.7333 12.1412 15.7333 11.925C15.7333 11.7092 15.9088 11.5333 16.125 11.5333C16.3412 11.5333 16.5167 11.7092 16.5167 11.925C16.5167 12.1412 16.6917 12.3167 16.9083 12.3167C17.1249 12.3167 17.3 12.1412 17.3 11.925C17.3 11.7092 17.4755 11.5333 17.6917 11.5333C17.9079 11.5333 18.0833 11.7092 18.0833 11.925V15.0583C18.0833 15.2745 18.2584 15.45 18.475 15.45C18.6916 15.45 18.8667 15.2745 18.8667 15.0583V11.925C18.8667 11.2772 18.3395 10.75 17.6917 10.75C17.3909 10.75 17.1163 10.8636 16.9083 11.05C16.7004 10.8636 16.4258 10.75 16.125 10.75C15.8242 10.75 15.5496 10.8636 15.3417 11.05C15.1337 10.8636 14.8591 10.75 14.5583 10.75C14.2575 10.75 13.983 10.8636 13.775 11.05C13.567 10.8636 13.2925 10.75 12.9917 10.75C12.3439 10.75 11.8167 11.2772 11.8167 11.925V13.1H10.6417C10.4251 13.1 10.25 13.2755 10.25 13.4917C10.25 13.7079 10.4251 13.8833 10.6417 13.8833H11.8167V15.45C11.8167 16.1562 12.0658 16.9587 12.2851 17.6668C12.2992 17.7119 12.3125 17.7554 12.3262 17.8H10.6417C10.4251 17.8 10.25 17.9755 10.25 18.1917ZM19.2583 13.4917C19.2583 13.2755 19.4334 13.1 19.65 13.1C20.0072 13.1 20.4333 13.44 20.4333 15.0583C20.4333 16.7214 19.3719 17.688 18.6693 18.3276C18.4358 18.5403 18.0833 18.8614 18.0833 18.975V24.0667C18.0833 24.2829 17.9083 24.4583 17.6917 24.4583C17.4751 24.4583 17.3 24.2829 17.3 24.0667V18.975C17.3 18.5152 17.6713 18.1768 18.1417 17.7483C18.8138 17.1365 19.65 16.3751 19.65 15.0583C19.65 14.2178 19.5302 13.9256 19.4879 13.8481C19.3523 13.7866 19.2583 13.6499 19.2583 13.4917Z" fill="#1F7BE7" stroke="#1F7BE7" stroke-width="0.5"/>
</svg>
