<svg width="45" height="44" viewBox="0 0 45 44" fill="none" xmlns="http://www.w3.org/2000/svg">
<rect width="45" height="44" rx="22" fill="#E0F9FC"/>
<path d="M36 11.7518C35.9995 11.2874 35.8213 10.8421 35.5044 10.5137C35.1876 10.1853 34.7581 10.0005 34.31 10H11.69C11.2419 10.0005 10.8124 10.1853 10.4956 10.5137C10.1787 10.8421 10.0005 11.2874 10 11.7518V32.2482C10.0005 32.7126 10.1787 33.1579 10.4956 33.4863C10.8124 33.8147 11.2419 33.9995 11.69 34H34.31C34.7581 33.9995 35.1876 33.8147 35.5044 33.4863C35.8213 33.1579 35.9995 32.7126 36 32.2482V11.7518ZM11.69 10.8085H34.31C34.5513 10.8088 34.7826 10.9083 34.9532 11.0851C35.1238 11.262 35.2197 11.5017 35.22 11.7518V13.6505H10.78V11.7518C10.7803 11.5017 10.8762 11.262 11.0468 11.0851C11.2174 10.9083 11.4487 10.8088 11.69 10.8085ZM34.31 33.1915H11.69C11.4487 33.1912 11.2174 33.0917 11.0468 32.9149C10.8762 32.738 10.7803 32.4983 10.78 32.2482V14.4591H35.22V32.2482C35.2197 32.4983 35.1238 32.738 34.9532 32.9149C34.7826 33.0917 34.5513 33.1912 34.31 33.1915Z" fill="#1F7BE7"/>
<path d="M18.1075 26.1976C18.8254 26.1964 19.5313 26.0069 20.1596 25.6469C20.7878 25.2868 21.318 24.7678 21.7008 24.1383C22.0836 23.5087 22.3066 22.789 22.3489 22.0462C22.3912 21.3033 22.2516 20.5614 21.943 19.8895C21.9387 19.8777 21.9339 19.866 21.9285 19.8545C21.9246 19.8461 21.9201 19.8382 21.9155 19.8303C21.5785 19.1273 21.0664 18.5304 20.4322 18.1014C19.798 17.6724 19.0647 17.4267 18.3082 17.39C17.5517 17.3532 16.7995 17.5266 16.1293 17.8922C15.4592 18.2578 14.8954 18.8024 14.4964 19.4696C14.0973 20.1368 13.8775 20.9024 13.8596 21.6872C13.8417 22.472 14.0264 23.2475 14.3946 23.9335C14.7627 24.6195 15.301 25.191 15.9538 25.5891C16.6065 25.9871 17.35 26.1972 18.1073 26.1975L18.1075 26.1976ZM21.0362 19.8555L18.4975 21.1382V18.2043C19.0132 18.2638 19.5094 18.4432 19.949 18.7291C20.3886 19.0151 20.7602 19.4002 21.0362 19.8558V19.8555ZM17.7175 18.2042V21.785C17.7174 21.8535 17.7343 21.921 17.7663 21.981C17.7984 22.0409 17.8446 22.0915 17.9007 22.1278C17.9568 22.1642 18.0209 22.1851 18.087 22.1887C18.153 22.1923 18.2189 22.1785 18.2783 22.1484L21.377 20.5829C21.6157 21.2861 21.6376 22.0489 21.4396 22.7656C21.2416 23.4823 20.8335 24.1175 20.2718 24.5831C19.7101 25.0487 19.0227 25.3218 18.3046 25.3644C17.5866 25.4071 16.8736 25.2173 16.2642 24.8213C15.6549 24.4252 15.1794 23.8426 14.9037 23.154C14.628 22.4655 14.5656 21.7051 14.7253 20.9782C14.8849 20.2513 15.2587 19.5938 15.7948 19.0968C16.3309 18.5999 17.0028 18.288 17.7175 18.2044V18.2042Z" fill="#1F7BE7"/>
<path d="M27.2953 25.8638C27.3987 25.8638 27.4979 25.8212 27.571 25.7454C27.6442 25.6696 27.6853 25.5668 27.6853 25.4596V22.7396C27.6853 22.6324 27.6442 22.5295 27.571 22.4537C27.4979 22.3779 27.3987 22.3353 27.2953 22.3353C27.1918 22.3353 27.0926 22.3779 27.0195 22.4537C26.9464 22.5295 26.9053 22.6324 26.9053 22.7396V25.4596C26.9053 25.5668 26.9464 25.6696 27.0195 25.7454C27.0926 25.8212 27.1918 25.8638 27.2953 25.8638Z" fill="#1F7BE7"/>
<path d="M29.3622 25.8639C29.4656 25.8639 29.5648 25.8213 29.6379 25.7455C29.7111 25.6697 29.7522 25.5668 29.7522 25.4596V21.1174C29.7522 21.0102 29.7111 20.9073 29.6379 20.8315C29.5648 20.7557 29.4656 20.7131 29.3622 20.7131C29.2587 20.7131 29.1595 20.7557 29.0864 20.8315C29.0133 20.9073 28.9722 21.0102 28.9722 21.1174V25.4597C28.9722 25.5669 29.0133 25.6697 29.0864 25.7455C29.1596 25.8213 29.2588 25.8639 29.3622 25.8639Z" fill="#1F7BE7"/>
<path d="M31.4291 25.8639C31.5325 25.8639 31.6317 25.8213 31.7048 25.7455C31.778 25.6696 31.8191 25.5668 31.8191 25.4596V19.3516C31.8191 19.2444 31.778 19.1415 31.7048 19.0657C31.6317 18.9899 31.5325 18.9473 31.4291 18.9473C31.3256 18.9473 31.2264 18.9899 31.1533 19.0657C31.0802 19.1415 31.0391 19.2444 31.0391 19.3516V25.4596C31.0391 25.5668 31.0802 25.6696 31.1533 25.7455C31.2264 25.8213 31.3256 25.8639 31.4291 25.8639Z" fill="#1F7BE7"/>
<path d="M25.2274 25.8639C25.3308 25.8639 25.43 25.8213 25.5032 25.7455C25.5763 25.6696 25.6174 25.5668 25.6174 25.4596V23.5508C25.6174 23.4436 25.5763 23.3408 25.5032 23.265C25.43 23.1892 25.3308 23.1466 25.2274 23.1466C25.124 23.1466 25.0248 23.1892 24.9516 23.265C24.8785 23.3408 24.8374 23.4436 24.8374 23.5508V25.4596C24.8374 25.5668 24.8785 25.6696 24.9516 25.7455C25.0248 25.8213 25.124 25.8639 25.2274 25.8639Z" fill="#1F7BE7"/>
<path d="M12.1934 12.7412C12.3093 12.7413 12.4226 12.7058 12.519 12.6392C12.6153 12.5725 12.6905 12.4778 12.7349 12.3669C12.7794 12.2559 12.7911 12.1338 12.7685 12.016C12.746 11.8982 12.6903 11.79 12.6084 11.705C12.5265 11.6201 12.4221 11.5622 12.3085 11.5387C12.1949 11.5152 12.0771 11.5272 11.97 11.5732C11.863 11.6191 11.7715 11.6969 11.7071 11.7968C11.6427 11.8966 11.6084 12.0141 11.6084 12.1342C11.6085 12.295 11.6702 12.4492 11.7799 12.563C11.8895 12.6768 12.0382 12.7409 12.1934 12.7412ZM12.1934 11.9326C12.2318 11.9327 12.2694 11.9447 12.3013 11.9669C12.3331 11.9891 12.358 12.0206 12.3726 12.0574C12.3872 12.0943 12.391 12.1348 12.3834 12.1738C12.3759 12.2129 12.3573 12.2487 12.3301 12.2769C12.3029 12.305 12.2682 12.3241 12.2305 12.3318C12.1928 12.3396 12.1538 12.3355 12.1183 12.3203C12.0828 12.305 12.0525 12.2792 12.0311 12.246C12.0098 12.2129 11.9984 12.174 11.9984 12.1342C11.9986 12.0806 12.0192 12.0294 12.0557 11.9916C12.0923 11.9538 12.1418 11.9326 12.1934 11.9326Z" fill="#1F7BE7"/>
<path d="M13.5718 12.7412C13.6877 12.7413 13.801 12.7058 13.8974 12.6392C13.9938 12.5725 14.0689 12.4778 14.1134 12.3669C14.1578 12.2559 14.1695 12.1338 14.1469 12.016C14.1244 11.8982 14.0687 11.79 13.9868 11.705C13.9049 11.6201 13.8005 11.5622 13.6869 11.5387C13.5733 11.5152 13.4555 11.5272 13.3485 11.5732C13.2414 11.6191 13.1499 11.6969 13.0855 11.7968C13.0212 11.8966 12.9868 12.0141 12.9868 12.1342C12.987 12.295 13.0486 12.4492 13.1583 12.563C13.2679 12.6768 13.4167 12.7409 13.5718 12.7412ZM13.5718 11.9326C13.6102 11.9327 13.6478 11.9447 13.6797 11.9669C13.7116 11.9891 13.7364 12.0206 13.751 12.0574C13.7656 12.0943 13.7694 12.1348 13.7618 12.1738C13.7543 12.2129 13.7357 12.2487 13.7085 12.2769C13.6813 12.305 13.6466 12.3241 13.6089 12.3318C13.5712 12.3396 13.5322 12.3355 13.4967 12.3203C13.4612 12.305 13.4309 12.2792 13.4095 12.246C13.3882 12.2129 13.3768 12.174 13.3768 12.1342C13.377 12.0806 13.3976 12.0294 13.4341 11.9916C13.4707 11.9538 13.5202 11.9326 13.5718 11.9326Z" fill="#1F7BE7"/>
<path d="M14.9493 12.7412C15.0651 12.7413 15.1784 12.7058 15.2748 12.6392C15.3712 12.5725 15.4464 12.4778 15.4908 12.3669C15.5352 12.2559 15.5469 12.1338 15.5244 12.016C15.5019 11.8982 15.4461 11.79 15.3642 11.705C15.2823 11.6201 15.178 11.5622 15.0644 11.5387C14.9507 11.5152 14.8329 11.5272 14.7259 11.5732C14.6188 11.6191 14.5273 11.6969 14.463 11.7968C14.3986 11.8966 14.3642 12.0141 14.3643 12.1342C14.3644 12.295 14.4261 12.4492 14.5357 12.563C14.6454 12.6768 14.7941 12.7409 14.9493 12.7412ZM14.9493 11.9326C14.9877 11.9327 15.0252 11.9447 15.0571 11.9669C15.089 11.9891 15.1138 12.0206 15.1285 12.0574C15.1431 12.0943 15.1468 12.1348 15.1393 12.1738C15.1317 12.2129 15.1132 12.2487 15.0859 12.2769C15.0587 12.305 15.0241 12.3241 14.9864 12.3318C14.9487 12.3396 14.9096 12.3355 14.8741 12.3203C14.8386 12.305 14.8083 12.2792 14.787 12.246C14.7656 12.2129 14.7543 12.174 14.7543 12.1342C14.7544 12.0806 14.775 12.0294 14.8116 11.9916C14.8481 11.9538 14.8976 11.9326 14.9493 11.9326Z" fill="#1F7BE7"/>
<path d="M31.7925 30.4222H14.2079C14.1044 30.4222 14.0052 30.4648 13.9321 30.5406C13.859 30.6164 13.8179 30.7193 13.8179 30.8265C13.8179 30.9337 13.859 31.0365 13.9321 31.1123C14.0052 31.1882 14.1044 31.2307 14.2079 31.2307H31.7925C31.8959 31.2307 31.9951 31.1882 32.0682 31.1123C32.1414 31.0365 32.1825 30.9337 32.1825 30.8265C32.1825 30.7193 32.1414 30.6164 32.0682 30.5406C31.9951 30.4648 31.8959 30.4222 31.7925 30.4222Z" fill="#1F7BE7"/>
<path d="M31.7925 28.4008H14.2079C14.1044 28.4008 14.0052 28.4434 13.9321 28.5193C13.859 28.5951 13.8179 28.6979 13.8179 28.8051C13.8179 28.9123 13.859 29.0152 13.9321 29.091C14.0052 29.1668 14.1044 29.2094 14.2079 29.2094H31.7925C31.8959 29.2094 31.9951 29.1668 32.0682 29.091C32.1414 29.0152 32.1825 28.9123 32.1825 28.8051C32.1825 28.6979 32.1414 28.5951 32.0682 28.5193C31.9951 28.4434 31.8959 28.4008 31.7925 28.4008Z" fill="#1F7BE7"/>
</svg>
