<svg width="46" height="46" viewBox="0 0 46 46" fill="none" xmlns="http://www.w3.org/2000/svg">
<rect width="46" height="46" rx="23" fill="#E0F9FC"/>
<path d="M10.581 10.0001C10.2658 10.0276 9.99864 10.3014 10 10.5953V34.4048C10 34.7164 10.3054 35 10.6411 35H29.2316C29.5672 35 29.8726 34.7164 29.8726 34.4048V31.0751L33.9093 34.8233C34.1462 35.0497 34.5859 35.0515 34.825 34.8271C35.064 34.6027 35.0572 34.1944 34.8108 33.977L30.704 30.1637C31.7783 28.9744 32.4369 27.4439 32.4369 25.7738C32.4369 23.7065 31.4382 21.8493 29.8726 20.5934V15.9524C29.874 15.7939 29.8037 15.636 29.6823 15.5246L23.9129 10.1675C23.7936 10.0603 23.6281 9.99885 23.4621 10.0001C21.4139 10.0001 19.3558 10.0001 17.312 10.0001C16.9759 10.014 16.6839 10.3112 16.6996 10.6232C16.7154 10.9353 17.036 11.2058 17.3721 11.1905H22.5005V16.25C22.5006 16.5617 22.8059 16.8452 23.1416 16.8453H28.5905V19.7657C27.5417 19.2321 26.3426 18.9286 25.0647 18.9286C22.9922 18.9286 21.1164 19.7289 19.7761 21.0119C17.8882 21.0119 15.9902 21.0119 14.1068 21.0119C13.7701 21.0252 13.4771 21.3226 13.4929 21.6352C13.5087 21.9477 13.8303 22.2185 14.1668 22.2024H18.7844C18.3642 22.8369 18.0525 23.5373 17.8729 24.2857C16.6197 24.2857 15.3553 24.2857 14.1068 24.2857C13.771 24.3003 13.4799 24.5972 13.4956 24.9089C13.5114 25.2206 13.8312 25.4909 14.1668 25.4762H17.7027C17.6981 25.5745 17.6926 25.6745 17.6926 25.7738C17.6926 26.3941 17.7857 26.9878 17.9531 27.5595C16.6731 27.5595 15.3821 27.5595 14.1067 27.5595C13.7711 27.5741 13.4801 27.871 13.4959 28.1827C13.5116 28.4943 13.8312 28.7646 14.1668 28.75H18.4339C18.848 29.543 19.4116 30.2466 20.1066 30.8333C18.1085 30.8333 16.1004 30.8333 14.1067 30.8333C13.7711 30.8479 13.4801 31.1449 13.4959 31.4565C13.5116 31.7681 13.8312 32.0384 14.1668 32.0238H22.0598C22.9778 32.4058 23.9954 32.619 25.0647 32.619C26.3426 32.619 27.5417 32.3155 28.5905 31.782V33.8095H11.2821V11.1905H14.8079C15.1466 11.195 15.4582 10.9098 15.4582 10.5953C15.4582 10.2808 15.1466 9.99555 14.8079 10.0001C13.401 10.0001 11.9833 10.0001 10.581 10.0001ZM23.7826 11.73L28.0096 15.6548H23.7826V11.73ZM25.0647 20.1191C28.4358 20.1191 31.1547 22.6438 31.1547 25.7738C31.1547 28.9039 28.4358 31.4286 25.0647 31.4286C21.6937 31.4286 18.9747 28.9039 18.9747 25.7738C18.9747 22.6438 21.6937 20.1191 25.0647 20.1191Z" fill="#1F7BE7"/>
<path d="M27.6836 22.3945H26.3008C26.5508 22.7109 26.709 23.0977 26.7754 23.5547H27.9531L27.6836 24.4805H26.793C26.7227 25.1758 26.4473 25.6992 25.9668 26.0508C25.4863 26.4023 24.8184 26.5781 23.9629 26.5781L26.8516 29.9297V30H25.5215L22.416 26.3848L22.4102 25.6523H23.8691C24.3574 25.6484 24.7539 25.543 25.0586 25.3359C25.3633 25.125 25.5566 24.8398 25.6387 24.4805H22.2461L22.5156 23.5547H25.627C25.4395 22.8125 24.8652 22.4258 23.9043 22.3945H22.2578L22.5332 21.4688H27.9531L27.6836 22.3945Z" fill="#1F7BE7"/>
</svg>
