<svg width="46" height="46" viewBox="0 0 46 46" fill="none" xmlns="http://www.w3.org/2000/svg">
<rect width="46" height="46" rx="23" fill="#E0F9FC"/>
<path d="M36.55 23.05H23.95V17.65C23.95 17.5307 23.9026 17.4162 23.8182 17.3318C23.7338 17.2474 23.6193 17.2 23.5 17.2H22.15V14.05C22.15 13.9307 22.1026 13.8162 22.0182 13.7318C21.9338 13.6474 21.8193 13.6 21.7 13.6H20.35V12.7C20.35 12.5807 20.3026 12.4662 20.2182 12.3818C20.1338 12.2974 20.0193 12.25 19.9 12.25H18.1C17.9807 12.25 17.8662 12.2974 17.7818 12.3818C17.6974 12.4662 17.65 12.5807 17.65 12.7V15.4H16.3C16.1807 15.4 16.0662 15.4474 15.9818 15.5318C15.8974 15.6162 15.85 15.7307 15.85 15.85V16.75H14.95V13.6C14.95 13.4807 14.9026 13.3662 14.8182 13.2818C14.7338 13.1974 14.6193 13.15 14.5 13.15H12.7C12.5807 13.15 12.4662 13.1974 12.3818 13.2818C12.2974 13.3662 12.25 13.4807 12.25 13.6V23.05H10.9V10.45C10.9 10.3307 10.8526 10.2162 10.7682 10.1318C10.6838 10.0474 10.5693 10 10.45 10C10.3307 10 10.2162 10.0474 10.1318 10.1318C10.0474 10.2162 10 10.3307 10 10.45V36.55C10 36.6693 10.0474 36.7838 10.1318 36.8682C10.2162 36.9526 10.3307 37 10.45 37C10.5693 37 10.6838 36.9526 10.7682 36.8682C10.8526 36.7838 10.9 36.6693 10.9 36.55V23.95H23.05V29.35C23.05 29.4693 23.0974 29.5838 23.1818 29.6682C23.2662 29.7526 23.3807 29.8 23.5 29.8H24.85V32.5C24.85 32.6193 24.8974 32.7338 24.9818 32.8182C25.0662 32.9026 25.1807 32.95 25.3 32.95H27.1C27.2193 32.95 27.3338 32.9026 27.4182 32.8182C27.5026 32.7338 27.55 32.6193 27.55 32.5V31.6H28.45V33.85C28.45 33.9693 28.4974 34.0838 28.5818 34.1682C28.6662 34.2526 28.7807 34.3 28.9 34.3H30.7C30.8193 34.3 30.9338 34.2526 31.0182 34.1682C31.1026 34.0838 31.15 33.9693 31.15 33.85V32.95H32.5C32.6193 32.95 32.7338 32.9026 32.8182 32.8182C32.9026 32.7338 32.95 32.6193 32.95 32.5V30.25H34.3C34.4193 30.25 34.5338 30.2026 34.6182 30.1182C34.7026 30.0338 34.75 29.9193 34.75 29.8V23.95H36.55C36.6693 23.95 36.7838 23.9026 36.8682 23.8182C36.9526 23.7338 37 23.6193 37 23.5C37 23.3807 36.9526 23.2662 36.8682 23.1818C36.7838 23.0974 36.6693 23.05 36.55 23.05ZM13.15 23.05V14.05H14.05V23.05H13.15ZM14.95 23.05V17.65H15.85V23.05H14.95ZM16.75 23.05V16.3H17.65V23.05H16.75ZM18.55 23.05V13.15H19.45V23.05H18.55ZM20.35 23.05V14.5H21.25V23.05H20.35ZM22.15 23.05V18.1H23.05V23.05H22.15ZM23.95 28.9V23.95H24.85V28.9H23.95ZM26.65 32.05H25.75V23.95H26.65V32.05ZM27.55 30.7V23.95H28.45V30.7H27.55ZM30.25 33.4H29.35V23.95H30.25V33.4ZM32.05 32.05H31.15V23.95H32.05V32.05ZM33.85 29.35H32.95V23.95H33.85V29.35Z" fill="#1F7BE7"/>
</svg>
