<svg width="44" height="43" viewBox="0 0 44 43" fill="none" xmlns="http://www.w3.org/2000/svg">
<rect x="0.981934" y="0.481995" width="42.036" height="42.036" rx="21.018" fill="#00CFE8" fill-opacity="0.12"/>
<path d="M28.6162 25.3966L28.2493 25.7634L27.5766 25.0906C28.9433 23.2236 29.5549 20.9094 29.289 18.6109C29.0232 16.3124 27.8996 14.1989 26.1428 12.6931C24.3861 11.1872 22.1256 10.4 19.8135 10.4888C17.5014 10.5775 15.308 11.5358 13.6719 13.1719C12.0357 14.808 11.0775 17.0015 10.9887 19.3136C10.8999 21.6257 11.6872 23.8861 13.193 25.6429C14.6989 27.3997 16.8123 28.5233 19.1108 28.7891C21.4093 29.0549 23.7235 28.4433 25.5906 27.0766L26.2633 27.7494L25.8965 28.1162L29.735 31.9547C30.0957 32.3154 30.5848 32.518 31.0948 32.518C31.6049 32.518 32.094 32.3154 32.4547 31.9547C32.8153 31.5941 33.0179 31.1049 33.0179 30.5949C33.0179 30.0849 32.8153 29.5957 32.4547 29.2351L28.6162 25.3966ZM11.742 19.6791C11.742 18.0104 12.2368 16.3792 13.1639 14.9917C14.091 13.6043 15.4087 12.5229 16.9503 11.8843C18.492 11.2457 20.1884 11.0786 21.8251 11.4042C23.4617 11.7297 24.9651 12.5333 26.145 13.7132C27.325 14.8932 28.1285 16.3965 28.4541 18.0331C28.7796 19.6698 28.6125 21.3662 27.9739 22.9079C27.3354 24.4496 26.2539 25.7672 24.8665 26.6943C23.479 27.6214 21.8478 28.1162 20.1791 28.1162C17.9422 28.1137 15.7977 27.224 14.2159 25.6423C12.6342 24.0606 11.7445 21.916 11.742 19.6791ZM26.1672 26.6159C26.5061 26.3232 26.8232 26.0062 27.1158 25.6673L27.7306 26.2821L26.782 27.2307L26.1672 26.6159ZM31.0948 31.7845C30.9386 31.785 30.7837 31.7544 30.6394 31.6946C30.495 31.6347 30.3639 31.5469 30.2537 31.436L26.9339 28.1162L28.6162 26.4339L31.936 29.7538C32.1023 29.9201 32.2156 30.1321 32.2615 30.3628C32.3074 30.5936 32.2838 30.8328 32.1938 31.0501C32.1038 31.2675 31.9513 31.4533 31.7557 31.584C31.5601 31.7147 31.3301 31.7845 31.0948 31.7845Z" fill="#1F7BE7" stroke="#1F7BE7" stroke-width="0.3"/>
<path d="M20.179 11.9757C18.6554 11.9757 17.166 12.4275 15.8992 13.274C14.6324 14.1204 13.645 15.3235 13.062 16.7312C12.4789 18.1388 12.3264 19.6877 12.6236 21.182C12.9208 22.6763 13.6545 24.0489 14.7319 25.1263C15.8092 26.2036 17.1818 26.9373 18.6762 27.2346C20.1705 27.5318 21.7194 27.3792 23.127 26.7962C24.5346 26.2131 25.7377 25.2258 26.5842 23.9589C27.4307 22.6921 27.8825 21.2027 27.8825 19.6791C27.8802 17.6367 27.0679 15.6786 25.6237 14.2345C24.1795 12.7903 22.2214 11.9779 20.179 11.9757ZM20.179 26.6489C18.8005 26.6489 17.453 26.2401 16.3068 25.4743C15.1607 24.7084 14.2673 23.6199 13.7398 22.3464C13.2123 21.0728 13.0742 19.6714 13.3432 18.3194C13.6121 16.9674 14.2759 15.7255 15.2506 14.7508C16.2254 13.776 17.4673 13.1122 18.8193 12.8433C20.1713 12.5744 21.5727 12.7124 22.8462 13.2399C24.1198 13.7674 25.2083 14.6608 25.9742 15.8069C26.74 16.9531 27.1488 18.3006 27.1488 19.6791C27.1468 21.527 26.4118 23.2986 25.1051 24.6053C23.7985 25.9119 22.0269 26.6469 20.179 26.6489Z" fill="#1F7BE7" stroke="#1F7BE7" stroke-width="0.3"/>
<path d="M24.948 21.1464V16.3777C24.948 16.0858 24.8321 15.8059 24.6257 15.5995C24.4193 15.3931 24.1394 15.2772 23.8475 15.2772H16.5109C16.219 15.2772 15.9391 15.3931 15.7327 15.5995C15.5264 15.8059 15.4104 16.0858 15.4104 16.3777V21.1464H14.6768V22.2469C14.6768 22.5388 14.7927 22.8187 14.9991 23.0251C15.2055 23.2315 15.4854 23.3474 15.7772 23.3474H24.5812C24.873 23.3474 25.153 23.2315 25.3593 23.0251C25.5657 22.8187 25.6817 22.5388 25.6817 22.2469V21.1464H24.948ZM16.1441 16.3777C16.1441 16.2804 16.1827 16.1871 16.2515 16.1183C16.3203 16.0495 16.4136 16.0108 16.5109 16.0108H23.8475C23.9448 16.0108 24.0381 16.0495 24.1069 16.1183C24.1757 16.1871 24.2143 16.2804 24.2143 16.3777V21.1464H16.1441V16.3777ZM24.948 22.2469C24.948 22.3442 24.9094 22.4375 24.8406 22.5063C24.7718 22.5751 24.6785 22.6138 24.5812 22.6138H15.7772C15.68 22.6138 15.5867 22.5751 15.5179 22.5063C15.4491 22.4375 15.4104 22.3442 15.4104 22.2469V21.8801H24.948V22.2469Z" fill="#1F7BE7" stroke="#1F7BE7" stroke-width="0.3"/>
<path d="M21.2798 17.4781H22.2285L20.5462 19.1604L19.0789 17.693L16.9854 19.7865L17.504 20.3052L19.0789 18.7304L20.5462 20.1978L22.7472 17.9968V18.9454H23.4808V16.7444H21.2798V17.4781Z" fill="#1F7BE7" stroke="#1F7BE7" stroke-width="0.3"/>
</svg>
