<svg width="44" height="44" viewBox="0 0 44 44" fill="none" xmlns="http://www.w3.org/2000/svg">
<rect x="0.25" y="0.75" width="43" height="43" rx="21.5" fill="#E0F9FC"/>
<path d="M32.4598 18.4816H11.0396C10.6557 18.4816 10.3442 18.7189 10.3442 19.0113V31.398C10.3442 32.695 11.7291 33.75 13.4317 33.75H30.0677C31.7703 33.75 33.1552 32.695 33.1552 31.398V19.0113C33.1552 18.7189 32.8438 18.4816 32.4598 18.4816ZM31.7645 31.398C31.7645 32.1106 31.0032 32.6903 30.0681 32.6903H13.4321C12.4966 32.6903 11.7357 32.1104 11.7357 31.398V19.5411H31.7648V31.398H31.7645Z" fill="#1F7BE7"/>
<path d="M11.0399 17.7709H32.4601C32.8982 17.7709 33.25 17.5029 33.25 17.1692V14.2631C33.25 13.9294 32.8982 13.6614 32.4601 13.6614H29.2074V12.0848C29.2074 11.3491 28.4244 10.75 27.4552 10.75C26.4894 10.75 25.7029 11.3491 25.7029 12.0848V13.6614H17.7936V12.0848C17.7936 11.3491 17.0072 10.75 16.0414 10.75C15.0721 10.75 14.2857 11.3491 14.2857 12.0848V13.6614H11.0399C10.6018 13.6614 10.25 13.9294 10.25 14.2631V17.1692C10.25 17.5029 10.6018 17.7709 11.0399 17.7709ZM27.1171 12.0848C27.1171 11.9429 27.2723 11.8247 27.4552 11.8247C27.6414 11.8247 27.7966 11.9429 27.7966 12.0848V14.6703C27.7966 14.8122 27.6414 14.9305 27.4552 14.9305C27.2723 14.9305 27.1171 14.8122 27.1171 14.6703V12.0848ZM15.6999 12.0848C15.6999 11.9429 15.8551 11.8247 16.0414 11.8247C16.2242 11.8247 16.3794 11.9429 16.3794 12.0848V14.6703C16.3794 14.8122 16.2242 14.9305 16.0414 14.9305C15.8551 14.9305 15.6999 14.8122 15.6999 14.6703V12.0848ZM11.8298 14.8648H14.3064C14.4271 15.5085 15.1584 16.0052 16.0414 16.0052C16.921 16.0052 17.6522 15.5085 17.7729 14.8648H25.7236C25.8443 15.5085 26.5756 16.0052 27.4552 16.0052C28.3382 16.0052 29.066 15.5085 29.1867 14.8648H31.6702V16.5675H11.8298V14.8648Z" fill="#1F7BE7"/>
<path d="M19.1175 30.4428C19.4711 30.8022 19.9589 31 20.4915 31C20.4918 31 20.4918 31 20.4918 31C21.3741 31 22.2332 30.4689 22.5347 29.7373C23.264 27.9673 24.307 26.2387 25.6356 24.5992C26.055 24.0818 26.1153 23.4885 25.8013 22.9716C25.4479 22.3905 24.6697 22 23.8645 22C23.178 22 22.5784 22.2735 22.1761 22.7697C21.4109 23.7134 20.714 24.7263 20.0971 25.7892C19.9986 25.6633 19.9041 25.5399 19.8126 25.4179C19.428 24.9048 18.8148 24.6106 18.1295 24.6106C17.3506 24.6106 16.5837 24.9941 16.2216 25.5645C15.892 26.0836 15.9317 26.6862 16.3299 27.2172C17.1514 28.3125 18.0892 29.3978 19.1175 30.4428ZM17.2472 26.0456C17.4057 25.7957 17.777 25.6145 18.1298 25.6145C18.4226 25.6145 18.6584 25.7313 18.8313 25.962C19.0966 26.3153 19.3863 26.6802 19.7167 27.0769C19.8381 27.2225 20.0383 27.3006 20.248 27.2842C20.4553 27.2668 20.6364 27.156 20.723 26.993C21.4117 25.6962 22.2233 24.468 23.1348 23.3431C23.3176 23.1179 23.5632 23.0037 23.865 23.0037C24.2349 23.0037 24.6141 23.1856 24.7664 23.4362C24.8785 23.6209 24.8495 23.8137 24.6775 24.026C23.2892 25.7392 22.1978 27.548 21.434 29.4025C21.2991 29.73 20.8765 29.9968 20.4921 29.9968C20.301 29.9968 20.1431 29.9309 20.0096 29.795C19.0138 28.7829 18.106 27.7329 17.3121 26.6742C17.145 26.452 17.1233 26.2404 17.2472 26.0456Z" fill="#1F7BE7"/>
</svg>
