<svg width="46" height="45" viewBox="0 0 46 45" fill="none" xmlns="http://www.w3.org/2000/svg">
<rect y="0.5" width="46" height="44" rx="22" fill="#00CFE8" fill-opacity="0.12"/>
<path d="M25.57 10.5H11C10.7348 10.5 10.4804 10.6054 10.2929 10.7929C10.1054 10.9804 10 11.2348 10 11.5V33.5C10 33.7652 10.1054 34.0196 10.2929 34.2071C10.4804 34.3946 10.7348 34.5 11 34.5H25.57C25.8352 34.5 26.0896 34.3946 26.2771 34.2071C26.4646 34.0196 26.57 33.7652 26.57 33.5V11.5C26.57 11.2348 26.4646 10.9804 26.2771 10.7929C26.0896 10.6054 25.8352 10.5 25.57 10.5ZM24.57 28.5C24.57 29.5609 24.1486 30.5783 23.3984 31.3284C22.6483 32.0786 21.6309 32.5 20.57 32.5H12V12.5H22.57C23.1004 12.5 23.6091 12.7107 23.9842 13.0858C24.3593 13.4609 24.57 13.9696 24.57 14.5V28.5ZM33 10.89H31.57C30.7744 10.89 30.0113 11.2061 29.4487 11.7687C28.8861 12.3313 28.57 13.0944 28.57 13.89V29.58C28.5701 29.9833 28.6921 30.3772 28.92 30.71L30.63 33.23C30.8135 33.5014 31.0608 33.7236 31.3502 33.8771C31.6397 34.0305 31.9624 34.1105 32.29 34.11C32.6159 34.1089 32.9366 34.0281 33.2242 33.8747C33.5118 33.7213 33.7575 33.5 33.94 33.23L35.66 30.71C35.88 30.3741 35.9981 29.9816 36 29.58V13.89C36 13.0944 35.6839 12.3313 35.1213 11.7687C34.5587 11.2061 33.7956 10.89 33 10.89ZM34 29.58L32.29 32.11L30.57 29.58V17.34H34V29.58ZM32.55 15.34H30.55V13.89C30.55 13.6248 30.6554 13.3704 30.8429 13.1829C31.0304 12.9954 31.2848 12.89 31.55 12.89H33C33.2652 12.89 33.5196 12.9954 33.7071 13.1829C33.8946 13.3704 34 13.6248 34 13.89C34 14.0804 33.9625 14.269 33.8896 14.4449C33.8168 14.6208 33.7099 14.7807 33.5753 14.9153C33.4407 15.05 33.2808 15.1568 33.1049 15.2296C32.929 15.3025 32.7404 15.34 32.55 15.34ZM22.66 16.5C22.66 16.7652 22.5546 17.0196 22.3671 17.2071C22.1796 17.3946 21.9252 17.5 21.66 17.5H14.91C14.6448 17.5 14.3904 17.3946 14.2029 17.2071C14.0154 17.0196 13.91 16.7652 13.91 16.5C13.91 16.2348 14.0154 15.9804 14.2029 15.7929C14.3904 15.6054 14.6448 15.5 14.91 15.5H21.66C21.9252 15.5 22.1796 15.6054 22.3671 15.7929C22.5546 15.9804 22.66 16.2348 22.66 16.5ZM22.66 20.5C22.66 20.7652 22.5546 21.0196 22.3671 21.2071C22.1796 21.3946 21.9252 21.5 21.66 21.5H14.91C14.6448 21.5 14.3904 21.3946 14.2029 21.2071C14.0154 21.0196 13.91 20.7652 13.91 20.5C13.91 20.2348 14.0154 19.9804 14.2029 19.7929C14.3904 19.6054 14.6448 19.5 14.91 19.5H21.66C21.9252 19.5 22.1796 19.6054 22.3671 19.7929C22.5546 19.9804 22.66 20.2348 22.66 20.5ZM22.66 24.5C22.66 24.7652 22.5546 25.0196 22.3671 25.2071C22.1796 25.3946 21.9252 25.5 21.66 25.5H14.91C14.6448 25.5 14.3904 25.3946 14.2029 25.2071C14.0154 25.0196 13.91 24.7652 13.91 24.5C13.91 24.2348 14.0154 23.9804 14.2029 23.7929C14.3904 23.6054 14.6448 23.5 14.91 23.5H21.66C21.9252 23.5 22.1796 23.6054 22.3671 23.7929C22.5546 23.9804 22.66 24.2348 22.66 24.5ZM22.66 28.5C22.66 28.7652 22.5546 29.0196 22.3671 29.2071C22.1796 29.3946 21.9252 29.5 21.66 29.5H14.91C14.6448 29.5 14.3904 29.3946 14.2029 29.2071C14.0154 29.0196 13.91 28.7652 13.91 28.5C13.91 28.2348 14.0154 27.9804 14.2029 27.7929C14.3904 27.6054 14.6448 27.5 14.91 27.5H21.66C21.9252 27.5 22.1796 27.6054 22.3671 27.7929C22.5546 27.9804 22.66 28.2348 22.66 28.5Z" fill="#1F7AE5"/>
</svg>
