<svg width="46" height="46" viewBox="0 0 46 46" fill="none" xmlns="http://www.w3.org/2000/svg">
<rect width="46" height="46" rx="23" fill="#E0F9FC"/>
<path d="M32.3817 10H15.8931C15.0076 10 14.2748 10.6057 14.2748 11.3375V13.5331H11.6183C10.7328 13.5331 10 14.1388 10 14.8707V32.6625C10 33.3943 10.7328 34 11.6183 34H28.1069C28.9924 34 29.7252 33.3943 29.7252 32.6625V30.4669H32.3817C33.2672 30.4669 34 29.8612 34 29.1293V11.3375C33.9695 10.6057 33.2672 10 32.3817 10ZM28.4122 32.6372C28.4122 32.7634 28.2901 32.8644 28.1069 32.8644H11.6183C11.4656 32.8644 11.3435 32.7634 11.3435 32.6372V14.8454C11.3435 14.7192 11.4656 14.6183 11.6183 14.6183H14.2748V29.1293C14.2748 29.8612 15.0076 30.4669 15.8931 30.4669H28.4122V32.6372ZM32.6565 29.1293C32.6565 29.2555 32.5343 29.3817 32.3511 29.3817H15.8931C15.7405 29.3817 15.5878 29.2808 15.5878 29.1293V11.3375C15.5878 11.2114 15.7099 11.0852 15.8931 11.0852H32.3817C32.5343 11.0852 32.687 11.1861 32.687 11.3375V29.1293H32.6565Z" fill="#1F7BE7"/>
<path d="M29.0231 22.795H19.2216C18.8551 22.795 18.5498 23.0473 18.5498 23.3502C18.5498 23.653 18.8551 23.9054 19.2216 23.9054H29.0231C29.3895 23.9054 29.6948 23.653 29.6948 23.3502C29.6948 23.0473 29.3895 22.795 29.0231 22.795Z" fill="#1F7BE7"/>
<path d="M29.0231 26.0757H19.2216C18.8551 26.0757 18.5498 26.3281 18.5498 26.6309C18.5498 26.9338 18.8551 27.1861 19.2216 27.1861H29.0231C29.3895 27.1861 29.6948 26.9338 29.6948 26.6309C29.6948 26.3281 29.3895 26.0757 29.0231 26.0757Z" fill="#1F7BE7"/>
<path d="M29.0231 19.5394H19.2216C18.8551 19.5394 18.5498 19.7918 18.5498 20.0946C18.5498 20.3974 18.8551 20.6498 19.2216 20.6498H29.0231C29.3895 20.6498 29.6948 20.3974 29.6948 20.0946C29.6948 19.7665 29.3895 19.5394 29.0231 19.5394Z" fill="#1F7BE7"/>
<path d="M20.3815 17.4448H21.5723C21.725 17.4448 21.8166 17.3439 21.8166 17.2429V15.6783C21.8166 15.5521 21.6945 15.4764 21.5723 15.4764H20.3815C20.2288 15.4764 20.1372 15.5773 20.1372 15.6783V17.2429C20.1372 17.3439 20.2593 17.4448 20.3815 17.4448Z" fill="#1F7BE7"/>
<path d="M23.3439 17.4448H24.5347C24.6874 17.4448 24.779 17.3438 24.779 17.2429V14.5426C24.779 14.4164 24.6569 14.3407 24.5347 14.3407H23.3439C23.1912 14.3407 23.0996 14.4416 23.0996 14.5426V17.2176C23.0996 17.3438 23.2217 17.4448 23.3439 17.4448Z" fill="#1F7BE7"/>
<path d="M26.3048 17.4448H27.4957C27.6483 17.4448 27.7399 17.3439 27.7399 17.2429V13.4574C27.7399 13.3565 27.6178 13.2556 27.4957 13.2556H26.3048C26.1521 13.2556 26.0605 13.3565 26.0605 13.4574V17.2429C26.0605 17.3439 26.1827 17.4448 26.3048 17.4448Z" fill="#1F7BE7"/>
</svg>
